<svg xmlns="http://www.w3.org/2000/svg" viewBox="0 0 904.88 888.17"><defs><style>.cls-1{isolation:isolate;}.cls-2{fill:#93278f;stroke:#93278f;stroke-width:10px;}.cls-2,.cls-4,.cls-5{stroke-miterlimit:10;}.cls-3{mix-blend-mode:color-dodge;}.cls-4{fill:#248bb3;stroke:#238cae;}.cls-4,.cls-5{stroke-width:20px;}.cls-5{fill:#a56811;stroke:#ae6d11;}</style></defs><title>RCC Logo 1</title><g class="cls-1"><g id="Layer_1" data-name="Layer 1"><path class="cls-2" d="M55.24,64L821.43,502.22v5.56q-345.7,188-350.24,202.16Q732,848.93,766.85,879.76H679.41L422.16,732.18Q83.54,926.76,49.68,939.9V64h5.56Zm38.41,421.5q10.61,16.68,290.1,169.82,24.26,21.73,49,21.73,5.56-10.61,295.66-169.31V496.67Q690,480,93.65,140.86V485.55Zm0,378H98.7Q354.94,717,372.63,709.94q-5.56-14.66-279-164.26v317.9Z" transform="translate(-44.68 -59.04)"/><g class="cls-3"><path class="cls-4" d="M939.56,119q-11.23,11.47-238,137.7-79.35,45.17-79.35,47.61v2.44L939.56,484V508L582.63,306.79v-2.44q13.43-13.43,356.93-203.86V119Z" transform="translate(-44.68 -59.04)"/></g><g class="cls-3"><path class="cls-5" d="M939.56,519.63q-11.23,11.47-238,137.7-79.35,45.17-79.35,47.61v2.44L939.56,884.62v23.93L582.63,707.37v-2.44q13.43-13.43,356.93-203.86v18.55Z" transform="translate(-44.68 -59.04)"/></g></g></g></svg>