<?xml version="1.0" encoding="utf-8"?>
<!-- Generator: Adobe Illustrator 18.1.1, SVG Export Plug-In . SVG Version: 6.00 Build 0)  -->
<!DOCTYPE svg PUBLIC "-//W3C//DTD SVG 1.1//EN" "http://www.w3.org/Graphics/SVG/1.1/DTD/svg11.dtd">
<svg version="1.1" xmlns="http://www.w3.org/2000/svg" xmlns:xlink="http://www.w3.org/1999/xlink" x="0px" y="0px"
	 viewBox="0 0 960 348" enable-background="new 0 0 960 348" xml:space="preserve">
<g id="bg" display="none">
	<rect display="inline" fill="#E3301F" width="960" height="348"/>
	<g display="inline">
		<rect y="261" fill="#E57D54" width="960" height="87"/>
		<rect y="174" fill="#E46342" width="960" height="87"/>
		<rect y="87" fill="#E44A31" width="960" height="87"/>
		<rect fill="#E3301F" width="960" height="87"/>
	</g>
</g>
<g id="Ebene_3" display="none">
</g>
<g id="illustration">
	<g>
		<path opacity="0.5" fill="#E8DCA9" d="M650,348H480v-87h88.2c14.1,0,27.7,4.9,38.7,13.8l20.7,16.9C641.8,303.3,650,329.6,650,348
			L650,348z"/>
		<path opacity="0.5" fill="#E8DCA9" d="M309.4,348H480v-87h-88.8c-14.1,0-27.7,4.9-38.7,13.8l-20.7,16.9
			C317.7,303.3,309.4,329.6,309.4,348L309.4,348z"/>
	</g>
	<g>
		<rect x="433" y="219" fill="#E8DCA9" width="93" height="129"/>
		<polygon opacity="0.5" fill="#E8DCA9" points="433,237 387.7,348 433,348 		"/>
		<polygon opacity="0.5" fill="#E8DCA9" points="526,237 571.3,348 526,348 		"/>
	</g>
	<path opacity="0.25" fill="#E3301F" d="M571.9,128.7c0,0,2.2-0.1,4.8-1.7c2.1-1.3,0.4-4.4-1.9-3.5c-1.6,0.6-3.3,0.8-4.8,0.2
		c0,0,8.9-5.2,3.5-15.5c0,0,16-34-10.5-45c0,0-1.6-22.1-24-21c0,0-5.4-26.6-59-26.6s-59,26.6-59,26.6c-22.4-1.1-24,21-24,21
		c-26.5,11-10.5,45-10.5,45c-5.4,10.3,3.5,15.5,3.5,15.5c-1.6,0.7-3.2,0.5-4.8-0.2c-2.3-0.9-3.9,2.2-1.9,3.5
		c2.6,1.6,4.8,1.7,4.8,1.7s-5.4,8.5-5.9,16.5c-1,17.2,15.8,27.5,15.8,27.5v4.5c0,9.1,7.1,16.8,16.2,16.8H414v13.7
		c0,6.2,15.4,34.5,31.4,62.1c15.4,26.6,53.9,26.6,69.3,0c15.9-27.6,31.4-55.9,31.4-62.1V194h-0.2c9.1,0,16.2-7.7,16.2-16.8v-4.5
		c0,0,16.7-10.3,15.8-27.5C577.3,137.2,571.9,128.7,571.9,128.7z"/>
	<path fill="#E8DCA9" d="M571.9,116.7c0,0,2.2-0.1,4.8-1.7c2.1-1.3,0.4-4.4-1.9-3.5c-1.6,0.6-3.3,0.8-4.8,0.2c0,0,8.9-5.2,3.5-15.5
		c0,0,16-34-10.5-45c0,0-1.6-22.1-24-21c0,0-5.4-26.6-59-26.6s-59,26.6-59,26.6c-22.4-1.1-24,21-24,21c-26.5,11-10.5,45-10.5,45
		c-5.4,10.3,3.5,15.5,3.5,15.5c-1.6,0.7-3.2,0.5-4.8-0.2c-2.3-0.9-3.9,2.2-1.9,3.5c2.6,1.6,4.8,1.7,4.8,1.7s-5.4,8.5-5.9,16.5
		c-1,17.2,15.8,27.5,15.8,27.5v4.5c0,9.1,7.1,16.8,16.2,16.8H414v13.7c0,12.8,4.8,25.3,13.3,34.9l22.7,25.3
		c5.7,6.3,13.8,10.1,22.3,10.1h7.6h7.6c8.5,0,16.6-3.8,22.3-10.1l22.7-25.3c8.6-9.5,13.3-22,13.3-34.9V182h-0.2
		c9.1,0,16.2-7.7,16.2-16.8v-4.5c0,0,16.7-10.3,15.8-27.5C577.3,125.2,571.9,116.7,571.9,116.7z"/>
	<g>
		<path fill="#461636" d="M480,184h-7.4c-8.6,0-16.8,3.8-22.5,10.3l-9.6,10.9c-2,2.2-5.3,2.7-7.8,1.1L429,204c-0.3-0.2-1-0.3-1-0.3
			v0c-2,0-2.3,2.1-1,3.1l6.2,4.7c2.1,1.6,4.7,2.4,7.4,2.4h28.9c3.3,0,5.5-2.5,5.5-5.8v-1.5c0-2.5,2.3-4.7,4.8-4.7h0.2V184z"/>
		<path fill="#461636" d="M480,184h7.4c8.6,0,16.8,3.8,22.5,10.3l9.6,10.9c2,2.2,5.3,2.7,7.8,1.1l3.7-2.3c0.3-0.2,1-0.3,1-0.3v0
			c2,0,2.3,2.1,1,3.1l-6.2,4.7c-2.1,1.6-4.7,2.4-7.4,2.4h-28.9c-3.3,0-6.5-2.5-6.5-5.8v-1.5c0-2.5-1.8-4.7-4.2-4.7h0.2V184z"/>
	</g>
</g>
<g id="Ebene_4" display="none">
</g>
</svg>
