<?xml version="1.0" encoding="utf-8"?>
<!-- Generator: Adobe Illustrator 18.1.1, SVG Export Plug-In . SVG Version: 6.00 Build 0)  -->
<!DOCTYPE svg PUBLIC "-//W3C//DTD SVG 1.1//EN" "http://www.w3.org/Graphics/SVG/1.1/DTD/svg11.dtd">
<svg version="1.1" id="Ebene_1" xmlns:sketch="http://www.bohemiancoding.com/sketch/ns"
	 xmlns="http://www.w3.org/2000/svg" xmlns:xlink="http://www.w3.org/1999/xlink" x="0px" y="0px" width="320px" height="500px"
	 viewBox="152 -242 320 500" style="enable-background:new 152 -242 320 500;" xml:space="preserve">
<style type="text/css">
	.st0{fill:#4B5158;}
	.st1{fill:#5AA4D4;}
	.st2{fill:#4C5258;}
	.st3{fill:#3B5998;}
	.st4{fill:#007BB6;}
	.st5{fill:#616161;}
	.st6{fill:#31AEFF;}
	.st7{fill:#FFFFFF;}
	.st8{fill:#EE391E;}
	.st9{fill:none;}
</style>
<g id="Mockup-A" sketch:type="MSPage">
	<g id="behindthecode-article-individual-140904" transform="translate(-369.000000, -1259.000000)" sketch:type="MSArtboardGroup">
		<g id="social-share-b" transform="translate(200.000000, 1248.000000)" sketch:type="MSLayerGroup">
			<g id="twitter-2">
				<g>
					<path id="path-1_1_" class="st0" d="M321-215c0.3,0,0.7,0.1,1.1,0.1c2.2,0,4.1-0.7,5.9-2c-1,0-1.9-0.3-2.7-0.9
						c-0.8-0.6-1.4-1.3-1.7-2.3c0.3,0,0.6,0.1,0.9,0.1c0.4,0,0.8-0.1,1.2-0.2c-1.1-0.2-2-0.7-2.7-1.6c-0.7-0.8-1.1-1.8-1.1-2.9v-0.1
						c0.7,0.4,1.4,0.6,2.1,0.6c-0.6-0.4-1.2-1-1.5-1.6s-0.6-1.4-0.6-2.2s0.2-1.6,0.6-2.3c1.2,1.4,2.6,2.5,4.3,3.4
						c1.7,0.9,3.5,1.3,5.4,1.4c-0.1-0.4-0.1-0.7-0.1-1c0-1.3,0.5-2.3,1.4-3.2s2-1.3,3.3-1.3c1.4,0,2.5,0.5,3.4,1.4
						c1.1-0.2,2.1-0.6,3-1.1c-0.4,1.1-1.1,1.9-2.1,2.5c0.9-0.1,1.8-0.3,2.7-0.7c-0.7,0.9-1.4,1.7-2.4,2.4c0,0.1,0,0.3,0,0.6
						c0,1.2-0.2,2.5-0.6,3.7s-0.9,2.4-1.7,3.5s-1.7,2.1-2.7,3s-2.3,1.6-3.8,2.1s-3,0.8-4.7,0.8C325.6-213,323.2-213.7,321-215
						L321-215z"/>
				</g>
			</g>
		</g>
	</g>
</g>
<g id="Mockup-A_1_" sketch:type="MSPage">
	
		<g id="behindthecode-article-individual-140904_1_" transform="translate(-369.000000, -1259.000000)" sketch:type="MSArtboardGroup">
		<g id="social-share-b_1_" transform="translate(200.000000, 1248.000000)" sketch:type="MSLayerGroup">
			<g id="twitter-2_1_">
				<g>
					<path id="path-1_8_" class="st1" d="M618-215c0.3,0,0.7001,0.1,1.1,0.1c2.2001,0,4.1-0.7,5.9-2c-1,0-1.9-0.3-2.7-0.9
						c-0.8-0.6-1.4-1.3-1.7001-2.3c0.3,0,0.6,0.1,0.9,0.1c0.4,0,0.8-0.1,1.2001-0.2c-1.1-0.2-2-0.7-2.7001-1.6
						c-0.7-0.8-1.1-1.8-1.1-2.9v-0.1c0.7001,0.4,1.4,0.6,2.1,0.6c-0.6-0.4-1.2-1-1.5-1.6c-0.4-0.7-0.6-1.4-0.6-2.2
						s0.2001-1.6,0.6-2.3c1.2001,1.4,2.6,2.5,4.3,3.4c1.7,0.8,3.5,1.3,5.4,1.4c-0.1-0.4-0.1-0.7-0.1-1c0-1.3,0.5-2.3,1.4-3.2
						s2-1.3,3.2999-1.3c1.4,0,2.5,0.5,3.4,1.4c1.1-0.2,2.1-0.6,3-1.1c-0.4,1.1-1.1,1.9-2.1,2.5c0.9-0.1,1.8-0.3,2.7001-0.7
						c-0.7001,0.9-1.4,1.7-2.4,2.4c0,0.1,0,0.3,0,0.6c0,1.2-0.2001,2.5-0.6,3.7c-0.4,1.2-0.9,2.4-1.7001,3.5
						c-0.7999,1.1-1.7,2.1-2.7,3s-2.3,1.6-3.8,2.1s-3,0.8-4.7,0.8C622.6-213,620.2001-213.7,618-215L618-215z"/>
				</g>
			</g>
		</g>
	</g>
</g>
<g id="facebook">
	<g>
		<path id="path-1_3_" class="st2" d="M152,52.4v-3.9h3.8v-3.4c0-1.7,0.3-2.9,1.3-3.9c1-0.9,2.3-1.4,4-1.4c1.4,0,2.5,0.1,3.3,0.2
			v3.6h-2.3c-0.8,0-1.6,1.3-1.6,1.9v2.9h3.8l-1,3.9h-2.7v10.6h-4.8V52.4C155.8,52.4,152,52.4,152,52.4z"/>
	</g>
</g>
<g id="facebook_1_">
	<g>
		<path id="path-1_6_" class="st3" d="M459.5,51.4v-3.9h3.8v-3.4c0-1.7,0.3-2.9,1.3-3.9c1-0.9,2.3-1.4,4-1.4c1.4,0,2.5,0.1,3.3,0.2
			v3.6h-2.3c-0.8,0-1.6,1.3-1.6,1.9v2.9h3.8l-1,3.9h-2.9v10.6h-4.8V51.4C463.1,51.4,459.5,51.4,459.5,51.4z"/>
	</g>
</g>
<g id="linkedin">
	<g>
		<path id="path-1_4_" class="st2" d="M152,138.3c0-0.8,0.2-1.4,0.7-1.9s1.1-0.8,1.9-0.8c0.8,0,1.4,0.3,1.9,0.8s0.7,1.1,0.7,1.9
			c0,0.8-0.2,1.8-0.7,2.4c-0.5,0.5-1.1,1.2-1.9,1.2l0,0c-0.8,0-1.4-0.7-1.9-1.2S152,139.1,152,138.3L152,138.3z M152,157.9v-15h5v15
			H152z M160,157.9c0-4,0-8,0-10.4s0-4.6,0-4.6h5v1.6c0-0.3,0.8-1.2,1.2-1.4c0.4-0.3,0.9-0.5,1.4-0.6s1.1-0.2,1.7-0.2
			c1.7,0,3.1,0.5,4.1,1.6s1.6,2.7,1.6,4.8v9.2h-5v-9c0-1,0-1.5-0.4-2.1s-1.1-0.9-2-0.9c-0.6,0-1.3,0.2-1.8,0.5
			c-0.4,0.3-0.9,1.1-0.9,1.6v9.8L160,157.9L160,157.9z"/>
	</g>
</g>
<g id="linkedin_1_">
	<g>
		<path id="path-1_5_" class="st4" d="M449,139.3c0-0.8,0.2-1.4,0.7-1.9s1.1-0.8,1.9-0.8s1.4,0.3,1.9,0.8s0.7,1.1,0.7,1.9
			c0,0.8-0.2,1.4-0.7,1.9s-1.1,0.8-1.9,0.8l0,0c-0.8,0-1.4-0.3-1.9-0.8S449,140.1,449,139.3L449,139.3z M449,157.9v-14.2h5.2v14.2
			H449z M457,157.9c0-3.8,0-7,0-9.4s0-4.8,0-4.8h5.3v1.8c0.2-0.3,0.7-1.2,1-1.4c0.4-0.3,0.8-0.5,1.3-0.6s1.1-0.2,1.7-0.2
			c1.7,0,3.1,0.5,4.1,1.6s1.6,2.7,1.6,4.8v8.2h-5.3v-8c0-1,0.2-1.5-0.2-2.1c-0.4-0.6-1-0.9-1.9-0.9c-0.6,0-1.2,0.2-1.6,0.5
			s-0.7,1.1-0.7,1.6v8.8L457,157.9L457,157.9z"/>
	</g>
</g>
<path class="st5" d="M175-56.9l-7.2,6.3l7.2,7v1.5h-0.9l-7-7.3l-3.1,2.5l-3.1-2.3l-7,7.2H153v-1.5l7.2-7l-7.2-6.4v-1.2h0.7l10.3,9
	l10.3-9h0.7V-56.9z M152-58.1v17h24v-17H152z"/>
<path class="st6" d="M471-56.9l-7.2,6.3l7.2,7v1.5h-0.9l-7-7.3l-3.1,2.5l-3.1-2.3l-7,7.2H449v-1.5l7.2-7l-7.2-6.3v-1.3h0.7l10.3,9
	l10.3-9h0.7V-56.9z M448-58.1v17h24v-17H448z"/>
<g>
	<g>
		<path id="path-1_2_" class="st2" d="M162.1-136.3c-0.6-0.4-1.6-1.4-1.6-1.9c0-0.7,0.2-1,1.2-1.8c1-0.8,1.7-1.9,1.7-3.2
			c0-1.6-0.7-3.1-2-3.6h1.9l1.4-1h-6.1c-2.7,0-5.3,2.1-5.3,4.5c0,2.5,1.9,4.5,4.7,4.5c0.2,0,0.4,0,0.6,0c-0.2,0.4-0.3,0.7-0.3,1.2
			c0,0.7,0.4,1.3,0.8,1.7c-0.4,0-0.7,0-1.1,0c-3.4,0-6,2.2-6,4.5c0,2.2,2.9,3.6,6.3,3.6c3.9,0,6-2.2,6-4.5
			C164.3-134.1,163.7-135.2,162.1-136.3L162.1-136.3z M158.9-139.4c-1.6,0-3.1-1.8-3.3-3.9c-0.3-2.1,0.8-3.7,2.4-3.7
			s3.1,1.7,3.3,3.8C161.5-141.1,160.4-139.4,158.9-139.4L158.9-139.4z M158.2-128.8c-2.3,0-4-1.5-4-3.3s2.1-2.7,4.5-2.7
			c0.5,0,1.2-0.2,1.7,0c1.3,0.9,2,1.1,2.3,2.1c0,0.2,0.1,0.4,0.1,0.6C162.7-130.3,161.5-128.8,158.2-128.8L158.2-128.8z"/>
	</g>
	<polygon class="st2" points="172,-147.1 170,-147.1 170,-144.1 167,-144.1 167,-142.1 170,-142.1 170,-139.1 172,-139.1 
		172,-142.1 175,-142.1 175,-144.1 172,-144.1 	"/>
</g>
<g id="Mockup-A_2_" sketch:type="MSPage">
	
		<g id="behindthecode-article-individual-140904_2_" transform="translate(-369.000000, -1259.000000)" sketch:type="MSArtboardGroup">
		<g id="social-share-b_2_" transform="translate(200.000000, 1248.000000)" sketch:type="MSLayerGroup">
			<g id="twitter-2_2_">
				<g>
					<path id="path-1_12_" class="st7" d="M471-215c0.3,0,0.7,0.1,1.1,0.1c2.2,0,4.1-0.7,5.9-2c-1,0-1.9-0.3-2.7-0.9
						c-0.8-0.6-1.4-1.3-1.7-2.3c0.3,0,0.6,0.1,0.9,0.1c0.4,0,0.8-0.1,1.2-0.2c-1.1-0.2-2-0.7-2.7-1.6c-0.7-0.8-1.1-1.8-1.1-2.9v-0.1
						c0.7,0.4,1.4,0.6,2.1,0.6c-0.6-0.4-1.2-1-1.5-1.6c-0.4-0.7-0.6-1.4-0.6-2.2s0.2-1.6,0.6-2.3c1.2,1.4,2.6,2.5,4.3,3.4
						c1.7,0.8,3.5,1.3,5.4,1.4c-0.1-0.4-0.1-0.7-0.1-1c0-1.3,0.5-2.3,1.4-3.2s2-1.3,3.3-1.3c1.4,0,2.5,0.5,3.4,1.4
						c1.1-0.2,2.1-0.6,3-1.1c-0.4,1.1-1.1,1.9-2.1,2.5c0.9-0.1,1.8-0.3,2.7-0.7c-0.7,0.9-1.4,1.7-2.4,2.4c0,0.1,0,0.3,0,0.6
						c0,1.2-0.2,2.5-0.6,3.7s-0.9,2.4-1.7,3.5c-0.8,1.1-1.7,2.1-2.7,3s-2.3,1.6-3.8,2.1s-3,0.8-4.7,0.8
						C475.6-213,473.2-213.7,471-215L471-215z"/>
				</g>
			</g>
		</g>
	</g>
</g>
<g id="facebook_2_">
	<g>
		<path id="path-1_11_" class="st7" d="M302,52.4v-3.9h3.8v-3.4c0-1.7,0.3-2.9,1.3-3.9c1-0.9,2.3-1.4,4-1.4c1.4,0,2.5,0.1,3.3,0.2
			v3.6h-2.3c-0.8,0-1.6,1.3-1.6,1.9v2.9h3.8l-1,3.9h-2.9v10.6h-4.8V52.4C305.6,52.4,302,52.4,302,52.4z"/>
	</g>
</g>
<g id="linkedin_2_">
	<g>
		<path id="path-1_10_" class="st7" d="M302,138.3c0-0.8,0.2-1.4,0.7-1.9s1.1-0.8,1.9-0.8s1.4,0.3,1.9,0.8s0.7,1.1,0.7,1.9
			c0,0.8-0.2,1.8-0.7,2.4c-0.5,0.5-1.1,1.2-1.9,1.2l0,0c-0.8,0-1.4-0.7-1.9-1.2S302,139.1,302,138.3L302,138.3z M302,157.9v-15h5v15
			H302z M310,157.9c0-4,0-8,0-10.4s0-4.6,0-4.6h5v1.6c0-0.3,0.8-1.2,1.2-1.4c0.4-0.3,0.9-0.5,1.4-0.6s1.1-0.2,1.7-0.2
			c1.7,0,3.1,0.5,4.1,1.6s1.6,2.7,1.6,4.8v9.2h-5v-9c0-1,0-1.5-0.4-2.1s-1.1-0.9-2-0.9c-0.6,0-1.3,0.2-1.8,0.5
			c-0.4,0.3-0.9,1.1-0.9,1.6v9.8L310,157.9L310,157.9z"/>
	</g>
</g>
<g>
	<g>
		<path id="path-1_7_" class="st7" d="M312.1-136.3c-0.6-0.4-1.6-1.4-1.6-1.9c0-0.7,0.2-1,1.2-1.8c1-0.8,1.7-1.9,1.7-3.2
			c0-1.6-0.7-3.1-2-3.6h1.9l1.4-1h-6.1c-2.7,0-5.3,2.1-5.3,4.5c0,2.5,1.9,4.5,4.7,4.5c0.2,0,0.4,0,0.6,0c-0.2,0.4-0.3,0.7-0.3,1.2
			c0,0.7,0.4,1.3,0.8,1.7c-0.4,0-0.7,0-1.1,0c-3.4,0-6,2.2-6,4.5c0,2.2,2.9,3.6,6.3,3.6c3.9,0,6-2.2,6-4.5
			C314.3-134.1,313.7-135.2,312.1-136.3L312.1-136.3z M308.9-139.4c-1.6,0-3.1-1.8-3.3-3.9c-0.3-2.1,0.8-3.7,2.4-3.7
			s3.1,1.7,3.3,3.8C311.5-141.1,310.4-139.4,308.9-139.4L308.9-139.4z M308.2-128.8c-2.3,0-4-1.5-4-3.3s2.1-2.7,4.5-2.7
			c0.5,0,1.2-0.2,1.7,0c1.3,0.9,2,1.1,2.3,2.1c0,0.2,0.1,0.4,0.1,0.6C312.7-130.3,311.5-128.8,308.2-128.8L308.2-128.8z"/>
	</g>
	<polygon class="st7" points="322,-147.1 320,-147.1 320,-144.1 317,-144.1 317,-142.1 320,-142.1 320,-139.1 322,-139.1 
		322,-142.1 325,-142.1 325,-144.1 322,-144.1 	"/>
</g>
<g>
	<g>
		<path id="path-1_9_" class="st8" d="M459.1-136.3c-0.6-0.4-1.6-1.4-1.6-1.9c0-0.7,0.2-1,1.2-1.8c1-0.8,1.7-1.9,1.7-3.2
			c0-1.6-0.7-3.1-2-3.6h1.9l1.4-1h-6.1c-2.7,0-5.3,2.1-5.3,4.5c0,2.5,1.9,4.5,4.7,4.5c0.2,0,0.4,0,0.6,0c-0.2,0.4-0.3,0.7-0.3,1.2
			c0,0.7,0.4,1.3,0.8,1.7c-0.4,0-0.7,0-1.1,0c-3.4,0-6,2.2-6,4.5c0,2.2,2.9,3.6,6.3,3.6c3.9,0,6-2.2,6-4.5
			C461.3-134.1,460.7-135.2,459.1-136.3L459.1-136.3z M455.9-139.4c-1.6,0-3.1-1.8-3.3-3.9c-0.3-2.1,0.8-3.7,2.4-3.7
			s3.1,1.7,3.3,3.8C458.5-141.1,457.4-139.4,455.9-139.4L455.9-139.4z M455.2-128.8c-2.3,0-4-1.5-4-3.3s2.1-2.7,4.5-2.7
			c0.5,0,1.2-0.2,1.7,0c1.3,0.9,2,1.1,2.3,2.1c0,0.2,0.1,0.4,0.1,0.6C459.7-130.3,458.5-128.8,455.2-128.8L455.2-128.8z"/>
	</g>
	<polygon class="st8" points="469,-147.1 467,-147.1 467,-144.1 464,-144.1 464,-142.1 467,-142.1 467,-139.1 469,-139.1 
		469,-142.1 472,-142.1 472,-144.1 469,-144.1 	"/>
</g>
<path class="st9" d="M322.3,258c0-10.7-8.6-19.4-19.3-19.4v-4.9c13.3,0,24.1,10.9,24.1,24.3H322.3z M319,258h-4.7
	c0-6.3-5.1-11.4-11.3-11.4v-4.7C311.8,241.9,319,249.1,319,258z M306.3,258c1.8,0,3.3-1.5,3.3-3.3s-1.5-3.3-3.3-3.3
	s-3.3,1.5-3.3,3.3S304.5,258,306.3,258z"/>
</svg>
