<?xml version="1.0" standalone="no"?>
<!DOCTYPE svg PUBLIC "-//W3C//DTD SVG 20010904//EN"
 "http://www.w3.org/TR/2001/REC-SVG-20010904/DTD/svg10.dtd">
<svg version="1.0" xmlns="http://www.w3.org/2000/svg"
 width="1000.000000pt" height="1000.000000pt" viewBox="0 0 1000.000000 1000.000000"
 preserveAspectRatio="xMidYMid meet">
<metadata>
Created by potrace 1.11, written by Peter Selinger 2001-2013
</metadata>
<g transform="translate(0.000000,1000.000000) scale(0.100000,-0.100000)"
fill="#000000" stroke="none">
<path d="M440 4966 l0 -4445 33 11 c182 61 1106 570 2987 1646 399 228 734
419 746 424 17 8 229 -111 1294 -721 l1274 -731 513 0 c282 0 513 3 512 8 -1
11 -134 122 -219 182 -326 232 -1241 752 -2599 1480 l-174 93 34 28 c163 133
1248 755 2744 1574 270 147 533 291 585 320 l95 52 0 63 0 63 -3844 2198
-3845 2199 -68 0 -68 0 0 -4444z m1056 3244 c3113 -1770 4975 -2815 5631
-3161 129 -68 132 -78 30 -133 -1105 -598 -2476 -1375 -2761 -1564 -109 -72
-115 -74 -216 -46 -72 20 -166 72 -260 144 -41 31 -136 90 -210 130 -287 156
-1227 680 -1560 870 -578 331 -910 531 -1077 652 l-83 59 0 1666 c0 1382 2
1664 13 1660 8 -3 229 -128 493 -277z m-141 -3960 c1159 -638 1995 -1124 2222
-1292 l54 -40 -243 -132 c-378 -206 -2180 -1226 -2365 -1338 l-33 -20 0 1512
c0 831 3 1509 8 1507 4 -3 165 -91 357 -197z"/>
<path d="M8840 8808 c-1855 -1034 -2770 -1556 -2995 -1709 -38 -26 -83 -60
-98 -76 -25 -27 -28 -36 -25 -93 l3 -62 1696 -956 1696 -956 -546 -304 c-1842
-1025 -2715 -1529 -2823 -1630 -25 -23 -28 -33 -28 -91 l0 -66 1881 -1060
c1034 -583 1884 -1061 1890 -1063 5 -2 9 91 9 235 l0 239 -1550 866 -1550 866
37 22 c217 129 625 361 1078 615 1227 687 1820 1032 1943 1132 l42 34 0 237
-1 237 -1540 859 c-846 472 -1542 862 -1544 867 -9 13 377 236 1250 724 825
461 1529 868 1710 988 33 22 75 54 93 70 l32 31 0 203 c0 112 -3 203 -7 202
-5 0 -298 -163 -653 -361z"/>
</g>
</svg>
